HIERARCHY
ROOT Hips
{
    OFFSET   0.000000   0.000000   0.000000
    CHANNELS 6 Xposition Yposition Zposition Zrotation Xrotation Yrotation
    JOINT Chest
    {
        OFFSET   0.000000   8.007230   0.000000
        CHANNELS 3 Zrotation Xrotation Yrotation
        JOINT Chest2
        {
            OFFSET   0.000000  22.077100   0.000000
            CHANNELS 3 Zrotation Xrotation Yrotation
            JOINT Neck
            {
                OFFSET   0.000000  23.255100   0.000000
                CHANNELS 3 Zrotation Xrotation Yrotation
                JOINT Head
                {
                    OFFSET   0.000000  14.370100   1.956600
                    CHANNELS 3 Zrotation Xrotation Yrotation
                    End Site
                    {
                        OFFSET   0.000000  19.566000   0.000000
                    }
                }
            }
            JOINT LeftCollar
            {
                OFFSET   3.911900  19.017000  -0.467063
                CHANNELS 3 Zrotation Xrotation Yrotation
                JOINT LeftShoulder
                {
                    OFFSET  10.383700   0.000000   0.000000
                    CHANNELS 3 Zrotation Xrotation Yrotation
                    JOINT LeftElbow
                    {
                        OFFSET  26.662100   0.001193   0.000980
                        CHANNELS 3 Zrotation Xrotation Yrotation
                        JOINT LeftWrist
                        {
                            OFFSET  28.869000  -0.000059  -0.000082
                            CHANNELS 3 Zrotation Xrotation Yrotation
                            JOINT LeftFinger0
                            {
                                OFFSET   2.044650  -2.323450   3.252850
                                CHANNELS 3 Zrotation Xrotation Yrotation
                                JOINT LeftFinger01
                                {
                                    OFFSET   3.088130   0.000000   0.000000
                                    CHANNELS 3 Zrotation Xrotation Yrotation
                                    JOINT LeftFinger02
                                    {
                                        OFFSET   2.639460   0.000000   0.000000
                                        CHANNELS 3 Zrotation Xrotation Yrotation
                                        End Site
                                        {
                                            OFFSET   2.582190   0.000000   0.000000
                                        }
                                    }
                                }
                            }
                            JOINT LeftFinger1
                            {
                                OFFSET   8.364480   0.000000   3.252850
                                CHANNELS 3 Zrotation Xrotation Yrotation
                                JOINT LeftFinger11
                                {
                                    OFFSET   4.646930   0.000000   0.000000
                                    CHANNELS 3 Zrotation Xrotation Yrotation
                                    JOINT LeftFinger12
                                    {
                                        OFFSET   2.323470   0.000000   0.000000
                                        CHANNELS 3 Zrotation Xrotation Yrotation
                                        End Site
                                        {
                                            OFFSET   2.273050   0.000000   0.000000
                                        }
                                    }
                                }
                            }
                            JOINT LeftFinger2
                            {
                                OFFSET   8.364490   0.000016   1.078090
                                CHANNELS 3 Zrotation Xrotation Yrotation
                                JOINT LeftFinger21
                                {
                                    OFFSET   5.111610   0.000000   0.000000
                                    CHANNELS 3 Zrotation Xrotation Yrotation
                                    JOINT LeftFinger22
                                    {
                                        OFFSET   2.788150   0.000016   0.000000
                                        CHANNELS 3 Zrotation Xrotation Yrotation
                                        End Site
                                        {
                                            OFFSET   2.727660   0.000000   0.000000
                                        }
                                    }
                                }
                            }
                            JOINT LeftFinger3
                            {
                                OFFSET   7.899780   0.000015  -1.078090
                                CHANNELS 3 Zrotation Xrotation Yrotation
                                JOINT LeftFinger31
                                {
                                    OFFSET   4.646930   0.000000   0.000000
                                    CHANNELS 3 Zrotation Xrotation Yrotation
                                    JOINT LeftFinger32
                                    {
                                        OFFSET   2.323470   0.000000   0.000000
                                        CHANNELS 3 Zrotation Xrotation Yrotation
                                        End Site
                                        {
                                            OFFSET   2.273050   0.000000   0.000000
                                        }
                                    }
                                }
                            }
                            JOINT LeftFinger4
                            {
                                OFFSET   7.435090   0.000000  -3.252850
                                CHANNELS 3 Zrotation Xrotation Yrotation
                                JOINT LeftFinger41
                                {
                                    OFFSET   3.717550   0.000000   0.000000
                                    CHANNELS 3 Zrotation Xrotation Yrotation
                                    JOINT LeftFinger42
                                    {
                                        OFFSET   1.858770   0.000000   0.000000
                                        CHANNELS 3 Zrotation Xrotation Yrotation
                                        End Site
                                        {
                                            OFFSET   1.818440   0.000000   0.000000
                                        }
                                    }
                                }
                            }
                        }
                    }
                }
            }
            JOINT RightCollar
            {
                OFFSET  -3.911910  19.017000  -0.467062
                CHANNELS 3 Zrotation Xrotation Yrotation
                JOINT RightShoulder
                {
                    OFFSET -10.383700   0.000014   0.000000
                    CHANNELS 3 Zrotation Xrotation Yrotation
                    JOINT RightElbow
                    {
                        OFFSET -26.662100   0.001225   0.001091
                        CHANNELS 3 Zrotation Xrotation Yrotation
                        JOINT RightWrist
                        {
                            OFFSET -28.869000  -0.000020  -0.000085
                            CHANNELS 3 Zrotation Xrotation Yrotation
                            JOINT RightFinger0
                            {
                                OFFSET  -2.044650  -2.323490   3.252850
                                CHANNELS 3 Zrotation Xrotation Yrotation
                                JOINT RightFinger01
                                {
                                    OFFSET  -3.088130   0.000000   0.000000
                                    CHANNELS 3 Zrotation Xrotation Yrotation
                                    JOINT RightFinger02
                                    {
                                        OFFSET  -2.639460   0.000000   0.000000
                                        CHANNELS 3 Zrotation Xrotation Yrotation
                                        End Site
                                        {
                                            OFFSET  -2.582190   0.000000   0.000000
                                        }
                                    }
                                }
                            }
                            JOINT RightFinger1
                            {
                                OFFSET  -8.364480   0.000000   3.252850
                                CHANNELS 3 Zrotation Xrotation Yrotation
                                JOINT RightFinger11
                                {
                                    OFFSET  -4.646930   0.000000   0.000000
                                    CHANNELS 3 Zrotation Xrotation Yrotation
                                    JOINT RightFinger12
                                    {
                                        OFFSET  -2.323470   0.000000   0.000000
                                        CHANNELS 3 Zrotation Xrotation Yrotation
                                        End Site
                                        {
                                            OFFSET  -2.273050   0.000000   0.000000
                                        }
                                    }
                                }
                            }
                            JOINT RightFinger2
                            {
                                OFFSET  -8.364480   0.000000   1.078090
                                CHANNELS 3 Zrotation Xrotation Yrotation
                                JOINT RightFinger21
                                {
                                    OFFSET  -5.111620   0.000000   0.000000
                                    CHANNELS 3 Zrotation Xrotation Yrotation
                                    JOINT RightFinger22
                                    {
                                        OFFSET  -2.788160   0.000000   0.000000
                                        CHANNELS 3 Zrotation Xrotation Yrotation
                                        End Site
                                        {
                                            OFFSET  -2.727660   0.000000   0.000000
                                        }
                                    }
                                }
                            }
                            JOINT RightFinger3
                            {
                                OFFSET  -7.899780   0.000000  -1.078090
                                CHANNELS 3 Zrotation Xrotation Yrotation
                                JOINT RightFinger31
                                {
                                    OFFSET  -4.646930   0.000000   0.000000
                                    CHANNELS 3 Zrotation Xrotation Yrotation
                                    JOINT RightFinger32
                                    {
                                        OFFSET  -2.323470   0.000000   0.000000
                                        CHANNELS 3 Zrotation Xrotation Yrotation
                                        End Site
                                        {
                                            OFFSET  -2.273050   0.000000   0.000000
                                        }
                                    }
                                }
                            }
                            JOINT RightFinger4
                            {
                                OFFSET  -7.435090   0.000000  -3.252850
                                CHANNELS 3 Zrotation Xrotation Yrotation
                                JOINT RightFinger41
                                {
                                    OFFSET  -3.717550   0.000000   0.000000
                                    CHANNELS 3 Zrotation Xrotation Yrotation
                                    JOINT RightFinger42
                                    {
                                        OFFSET  -1.858760   0.000000   0.000000
                                        CHANNELS 3 Zrotation Xrotation Yrotation
                                        End Site
                                        {
                                            OFFSET  -1.818440   0.000000   0.000000
                                        }
                                    }
                                }
                            }
                        }
                    }
                }
            }
        }
    }
    JOINT LeftHip
    {
        OFFSET   9.783030   0.000000   0.000000
        CHANNELS 3 Zrotation Xrotation Yrotation
        JOINT LeftKnee
        {
            OFFSET   0.000063 -41.789100   0.000608
            CHANNELS 3 Zrotation Xrotation Yrotation
            JOINT LeftAnkle
            {
                OFFSET   0.000048 -41.133200  -0.000184
                CHANNELS 3 Zrotation Xrotation Yrotation
                JOINT LeftToe
                {
                    OFFSET   0.000000  -6.358960  14.674500
                    CHANNELS 3 Zrotation Xrotation Yrotation
                    End Site
                    {
                        OFFSET   0.000000   0.000000   3.913200
                    }
                }
            }
        }
    }
    JOINT RightHip
    {
        OFFSET  -9.783030   0.000000   0.000000
        CHANNELS 3 Zrotation Xrotation Yrotation
        JOINT RightKnee
        {
            OFFSET   0.000071 -41.789100   0.001239
            CHANNELS 3 Zrotation Xrotation Yrotation
            JOINT RightAnkle
            {
                OFFSET   0.000037 -41.133200  -0.000166
                CHANNELS 3 Zrotation Xrotation Yrotation
                JOINT RightToe
                {
                    OFFSET   0.000000  -6.358960  14.674500
                    CHANNELS 3 Zrotation Xrotation Yrotation
                    End Site
                    {
                        OFFSET   0.000000   0.000000   3.913200
                    }
                }
            }
        }
    }
}
MOTION
Frames: 4
Frame Time:   0.016667
 -5.582950  89.193200   3.133730  -3.596440 -15.762400  -4.136750   1.591870   7.644780   1.469160   3.024530  15.325500   2.758760   3.283980  -0.586617   0.033657   5.396650  -1.177900   2.749140  -0.501634  -0.031872  -3.238410 -72.083800  21.727000  -5.536880  -2.667570  -7.896150 -15.477000  18.194500 -12.128500   8.434990  40.507100  35.361700 -64.609200 -31.995500  -0.001119   0.001369 -10.997700   0.002412   0.000303 -32.818700   8.480650 -12.880600 -27.636300   0.002875  -0.013315 -19.345400   0.005125  -0.008054 -28.768900   1.137630  -2.070410 -42.408900  -0.013182  -0.041785 -28.244300   0.000306  -0.029200 -28.765500   1.137290  -2.070600 -41.687400  -0.005043  -0.030115 -27.763800   0.004393  -0.019895 -36.619000  -0.153893   0.207070 -54.928800  -0.004791  -0.000085 -36.582600  -0.000549  -0.000000   0.034315 -13.619600  -2.557710  -2.133930 -27.584700  70.780300 -34.190100  -5.405400  23.566000  48.187300   6.766490   5.482470 -40.859800  36.154800  70.788800  30.371000  -0.021533  -0.011246  10.185500  -0.011606   0.002571  20.867800   4.624600  11.861000  17.472500  -0.004529  -0.016139  12.230800  -0.005082  -0.010616  18.791900   3.373640   9.712210  18.582800  -0.007135  -0.000515  12.376200  -0.003164   0.001764  17.160800   2.310120   7.333490  17.211800  -0.004038   0.002823  11.463100  -0.001712   0.003086  28.292800   1.453720   2.844490  42.487800   0.015809  -0.051307  28.296900  -0.005977  -0.036336   6.552390  18.497600   4.251720   2.487750   3.192720  10.488500  -7.585610  -4.358630  -1.322040   0.000000   0.000000  -0.000000   5.710020  18.551000  -7.400230   1.248170   1.820460  -6.639590  -2.549840  -6.166370   3.600180  -0.000000   0.000000   0.000000
 -5.520590  89.188200   3.110820  -3.621680 -15.765100  -4.198130   1.578620   7.645050   1.439710   3.001550  15.326200   2.701070   3.277080  -0.541582   0.030882   5.384820  -1.087390   2.867940  -0.498052  -0.010474  -3.289700 -72.115200  21.696100  -5.519660  -2.664130  -7.896220 -15.507500  18.169500 -12.127500   8.451270  40.543100  35.483700 -64.795500 -32.042800  -0.001109   0.003873 -11.021400   0.002413   0.000299 -32.848600   8.464550 -12.842700 -27.657000  -0.002998  -0.016198 -19.359900   0.000728  -0.011363 -28.770300   1.117980  -2.034520 -42.430000  -0.019099  -0.029431 -28.258400  -0.005223  -0.022685 -28.767300   1.117650  -2.034700 -41.707800  -0.016990  -0.036945 -27.777400  -0.002519  -0.027293 -36.644300  -0.160277   0.215588 -54.966800  -0.005657  -0.011597 -36.607900  -0.000005  -0.008240   0.108939 -13.576800  -2.611500  -2.177580 -27.249500  70.573400 -34.314800  -5.177440  23.665900  43.292600   5.389290   6.219930 -44.815000  39.883500  72.560100  30.114300   0.005888  -0.014567  10.057100   0.003806   0.003047  16.294200   3.632520  11.694100  13.630500   0.005263   0.004292   9.541400   0.003482   0.003488  15.222200   2.814200   9.289850  14.957000   0.012009   0.014567   9.961400   0.009612   0.001074  14.205800   1.835390   6.941270  14.231700   0.011273   0.010101   9.478340   0.008557   0.003475  24.320800   2.004410   4.378580  36.596500   0.026363  -0.013634  24.373200   0.011306  -0.018706   6.530900  18.530500   4.277180   2.468560   3.130080  10.534900  -7.546160  -4.336090  -1.319480   0.000000   0.000000  -0.000000   5.667500  18.532800  -7.344420   1.247990   1.835460  -6.659850  -2.508860  -6.150480   3.636110   0.000000   0.000000  -0.000000
 -5.454490  89.179500   3.083830  -3.655300 -15.776200  -4.282790   1.566500   7.646330   1.414820   2.980600  15.326800   2.652080   3.263420  -0.493870   0.027607   5.362490  -0.991569   2.978140  -0.497300  -0.003252  -3.340990 -72.136100  21.691700  -5.517200  -2.665970  -7.904540 -15.512200  18.108300 -12.123400   8.455730  40.567000  35.580700 -64.962100 -32.069500  -0.001103   0.005603 -11.034700   0.002415   0.000295 -32.855900   8.456710 -12.827700 -27.661400  -0.012235  -0.024269 -19.362900  -0.002320  -0.018887 -28.770900   1.109740  -2.019440 -42.433000  -0.026037  -0.022893 -28.260400  -0.012457  -0.019497 -28.768200   1.109410  -2.019620 -41.710700  -0.033401  -0.042658 -27.779300  -0.011467  -0.034242 -36.649000  -0.161515   0.217263 -54.974000  -0.006569  -0.022176 -36.612700   0.000473  -0.016021   0.213762 -13.529200  -2.642770  -2.177220 -26.804700  70.370500 -34.502200  -4.748470  23.870400  35.804200   4.647450   6.425030 -48.477900  43.239000  74.793300  30.077600   0.030967  -0.017888  10.038800   0.016910   0.003277  13.840900   2.894320  11.326400  11.551200   0.022742   0.022417   8.085850   0.018288   0.013063  13.426300   2.115110   8.470910  13.569100   0.041400   0.019413   9.037020   0.029536   0.000385  13.015500   1.498980   6.244790  13.089800   0.034120   0.014450   8.717800   0.024081   0.003574  22.325200   2.225000   5.183190  33.632200   0.047750  -0.005630  22.399000   0.028211  -0.016187   6.508320  18.598900   4.292450   2.447580   3.051300  10.603300  -7.502080  -4.311430  -1.312460   0.000000   0.000000   0.000000   5.623520  18.528600  -7.285040   1.248820   1.850290  -6.674440  -2.465400  -6.134140   3.686760  -0.000000   0.000000  -0.000000
 -5.386440  89.171500   3.057410  -3.704170 -15.801200  -4.398910   1.559250   7.660040   1.396840   2.968280  15.352700   2.617010   3.243190  -0.447725   0.024769   5.330090  -0.899135   3.070000  -0.511468  -0.000316  -3.339310 -72.138200  21.781900  -5.547930  -2.681870  -7.936950 -15.474700  17.988400 -11.980700   8.412830  40.564800  35.599900 -65.052900 -32.062900  -0.001108   0.002490 -11.031500   0.002415   0.000294 -32.833800   8.464990 -12.850300 -27.645500  -0.019813  -0.042135 -19.351800  -0.003089  -0.032435 -28.770200   1.119300  -2.036880 -42.377900  -0.030348  -0.027730 -28.223600  -0.014447  -0.023119 -28.767800   1.118950  -2.037070 -41.656700  -0.040202  -0.051783 -27.743300  -0.013843  -0.041420 -36.625900  -0.155692   0.209634 -54.939400  -0.007508  -0.025877 -36.589700   0.000912  -0.018653   0.264029 -13.430500  -2.631750  -2.175130 -26.387600  70.111200 -34.545000  -4.301740  24.129800  27.301500   4.679710   5.818440 -51.216700  45.711000  77.368000  30.623800   0.026910  -0.015734  10.311900   0.014790   0.003360  14.218300   2.881230  10.649200  11.851400   0.043697   0.037320   8.295990   0.034695   0.020550  14.220500   1.954870   7.437700  14.330100   0.063245   0.030643   9.543840   0.045354   0.000645  13.818000   1.411260   5.525580  13.875600   0.048947   0.022427   9.241140   0.034837   0.003677  22.535300   2.215640   5.103710  33.934100   0.080528  -0.012432  22.600100   0.046170  -0.028397   6.487690  18.688100   4.292790   2.424680   2.959350  10.690500  -7.447700  -4.289120  -1.282550  -0.000000   0.000000   0.000000   5.583530  18.533700  -7.225560   1.246860   1.866560  -6.670340  -2.417290  -6.114540   3.746340  -0.000000   0.000000   0.000000
